<svg width="750" height="750" xmlns="http://www.w3.org/2000/svg" xmlns:xlink="http://www.w3.org/1999/xlink">
  <defs>
    <path d="M468 1C316-9 160 94 130 256-19 247-19 418 27 418s46-34 84-43c30 317 367 402 591 282-149 0-63.354-156.753-33-224C799 145 620 11 468 1z" id="a"/>
    <path d="M468 1C316-9 160 94 130 256-19 247-19 418 27 418s46-34 84-43c30 317 367 402 591 282-149 0-63.354-156.753-33-224C799 145 620 11 468 1z" id="c"/>
  </defs>
  <g transform="translate(18 18)" fill="none" fill-rule="evenodd">
    <mask id="b" fill="#fff">
      <use xlink:href="#a"/>
    </mask>
    <use fill="#D8D8D8" xlink:href="#a"/>
    <g fill-rule="nonzero" mask="url(#b)">
      <path fill="#8A1E04" d="M-253-18h1300v750H-253z"/>
      <path fill="#C54E54" d="M-253-18h1300v642.857H-253z"/>
      <path fill="#E4ACCF" d="M-253-18h1300v535.714H-253z"/>
      <path fill="#EDEDEB" d="M-253-18h1300v428.571H-253z"/>
      <path fill="#D063A6" d="M-253-18h1300v321.429H-253z"/>
      <path fill="#B75592" d="M-253-18h1300v214.286H-253z"/>
      <path fill="#A40061" d="M-253-18h1300V89.143H-253z"/>
    </g>
    <mask id="d" fill="#fff">
      <use xlink:href="#c"/>
    </mask>
    <use stroke="#2F2F2F" stroke-width="30" stroke-linejoin="round" xlink:href="#c"/>
    <path d="M491 276c50 15 78-84 16-99-58.163-14.072-86 16-98 29s-24 36 13 40 49 22 69 30zM304 204c10 10 14 8 23-4 28-36 16-110-26-107s-56 40-56 60 8 27 26 31 23 10 33 20zM253 235c52-10 24 64 124 56 24-2 70-5 70 33 0 53-81 70-121 70-52 0-99-50-99-108 0-27 10.026-47.928 26-51zM567 400c6-6-5.018-37.254-51-39-79-3-118 80-117 127s19 64 44 66 46.695-23.606 64-40c38-36 52-3 61-11s-5.96-39.211-32-38c-43 2-71.975 57-88 57-14 0-22.088-13.225-19-37 10-77 55-95 94-95 19.021 0 38 16 44 10zM168.019 280.08c6-6-5.019-37.255-51-39-79-3-118 80-117 127S2.912 378.774 6 355c10-77 79.019-83.92 118.019-83.92 19.021 0 38 15 44 9z" fill="#2F2F2F" mask="url(#d)"/>
  </g>
</svg>
