<svg width="750" height="750" xmlns="http://www.w3.org/2000/svg" xmlns:xlink="http://www.w3.org/1999/xlink">
  <defs>
    <path d="M468 1C316-9 160 94 130 256-19 247-19 418 27 418s46-34 84-43c30 317 367 402 591 282-149 0-63.354-156.753-33-224C799 145 620 11 468 1z" id="a"/>
    <path d="M468 1C316-9 160 94 130 256-19 247-19 418 27 418s46-34 84-43c30 317 367 402 591 282-149 0-63.354-156.753-33-224C799 145 620 11 468 1z" id="c"/>
  </defs>
  <g transform="translate(18 18)" fill="none" fill-rule="evenodd">
    <mask id="b" fill="#fff">
      <use xlink:href="#a"/>
    </mask>
    <use fill="#D8D8D8" xlink:href="#a"/>
    <g fill-rule="nonzero" mask="url(#b)">
      <path fill="#000" d="M-253 482h1300v250H-253z"/>
      <path fill="red" d="M-253 232h1300v250H-253z"/>
      <path fill="#00F" d="M-253-18h1300v250H-253z"/>
      <path d="M335.275 421.343c0-10.144 3.26-18.729 6.112-29.264l24.445-81.939c2.037-7.023 1.222-10.535-7.74-10.535-26.89 0-40.336 7.024-50.114 35.117-.815 1.95-.815 5.463-4.074 5.463-3.26 0-5.704-5.073-5.704-14.828 0-20.68 15.482-50.334 66.41-50.334 17.926 0 37.075 1.17 55.002 2.341 13.852.78 26.482 1.561 37.89 1.561 11 0 18.742-3.511 24.446-6.243 4.481-2.731 6.926-4.682 8.963-4.682 4.074 0 4.889 3.121 4.889 11.706 0 10.925-8.556 24.972-14.667 24.972-10.593 0-23.223-1.561-28.52-1.561-8.556 0-11.815 1.17-13.445 11.705-1.63 10.926-9.37 56.578-9.37 71.795 0 9.364 6.926 13.266 14.667 13.656 4.481.39 9.37-.39 13.445-1.95 3.26-1.171 5.296-2.342 6.111-2.342 3.667 0 4.074 1.951 4.074 5.853 0 12.876-8.963 32.386-28.52 32.386-13.444 0-25.26-12.486-25.26-37.458 0-18.73 10.186-72.575 10.186-84.67 0-4.683-2.445-9.365-6.111-9.365l-30.557-1.17c-5.297-.391-8.148 1.95-9.778 7.803-12.223 44.09-15.482 72.184-16.297 90.523-.407 12.486.815 20.29 1.63 24.972 1.222 6.633 1.63 10.145-4.075 10.145-5.296 0-24.038-7.804-24.038-13.657z" fill="#FF0"/>
    </g>
    <mask id="d" fill="#fff">
      <use xlink:href="#c"/>
    </mask>
    <use stroke="#2F2F2F" stroke-width="30" stroke-linejoin="round" xlink:href="#c"/>
    <path d="M491 276c50 15 78-84 16-99-58.163-14.072-86 16-98 29s-24 36 13 40 49 22 69 30zM304 204c10 10 14 8 23-4 28-36 16-110-26-107s-56 40-56 60 8 27 26 31 23 10 33 20zM253 235c52-10 24 64 124 56 24-2 70-5 70 33 0 53-81 70-121 70-52 0-99-50-99-108 0-27 10.026-47.928 26-51zM567 400c6-6-5.018-37.254-51-39-79-3-118 80-117 127s19 64 44 66 46.695-23.606 64-40c38-36 52-3 61-11s-5.96-39.211-32-38c-43 2-71.975 57-88 57-14 0-22.088-13.225-19-37 10-77 55-95 94-95 19.021 0 38 16 44 10zM168.019 280.08c6-6-5.019-37.255-51-39-79-3-118 80-117 127S2.912 378.774 6 355c10-77 79.019-83.92 118.019-83.92 19.021 0 38 15 44 9z" fill="#2F2F2F" mask="url(#d)"/>
  </g>
</svg>
