<svg width="750" height="750" viewBox="0 0 750 750" fill="none" xmlns="http://www.w3.org/2000/svg">
<path d="M486 19C334 9.00001 178 112 148 274C-1.00008 265 -1.00008 436 44.9999 436C90.9999 436 90.9999 402 129 393C159 710 496 795 720 675C571 675 656.646 518.247 687 451C817 163 638 29 486 19Z" fill="#D8D8D8"/>
<mask id="mask0_1320_6398" style="mask-type:alpha" maskUnits="userSpaceOnUse" x="18" y="18" width="714" height="710">
<path d="M486 19C334 9.00001 178 112 148 274C-1.00008 265 -1.00008 436 44.9999 436C90.9999 436 90.9999 402 129 393C159 710 496 795 720 675C571 675 656.646 518.247 687 451C817 163 638 29 486 19Z" fill="#D9D9D9"/>
</mask>
<g mask="url(#mask0_1320_6398)">
<path d="M-216 32H966V714H-216V32Z" fill="#A30262"/>
<path d="M-216 32H966V577.6H-216V32Z" fill="#D362A4"/>
<path d="M-216 32H966V441.2H-216V32Z" fill="white"/>
<path d="M-216 32H966V304.8H-216V32Z" fill="#FF9A56"/>
<path d="M-216 32H966V168.4H-216V32Z" fill="#D52D00"/>
</g>
<path d="M486 19C334 9.00001 178 112 148 274C-1.00008 265 -1.00008 436 44.9999 436C90.9999 436 90.9999 402 129 393C159 710 496 795 720 675C571 675 656.646 518.247 687 451C817 163 638 29 486 19Z" stroke="#2F2F2F" stroke-width="30" stroke-linejoin="round"/>
<mask id="mask1_1320_6398" style="mask-type:alpha" maskUnits="userSpaceOnUse" x="18" y="18" width="714" height="710">
<path d="M486 19C334 9.00001 178 112 148 274C-1.00008 265 -1.00008 436 44.9999 436C90.9999 436 90.9999 402 129 393C159 710 496 795 720 675C571 675 656.646 518.247 687 451C817 163 638 29 486 19Z" fill="#2F2F2F"/>
</mask>
<g mask="url(#mask1_1320_6398)">
<path fill-rule="evenodd" clip-rule="evenodd" d="M509 294C559 309 587 210 525 195C466.837 180.928 439 211 427 224C415 237 403 260 440 264C477 268 489 286 509 294ZM322 222C332 232 336 230 345 218C373 182 361 108 319 111C277 114 263 151 263 171C263 191 271 198 289 202C307 206 312 212 322 222ZM271 253C323 243 295 317 395 309C419 307 465 304 465 342C465 395 384 412 344 412C292 412 245 362 245 304C245 277 255.026 256.072 271 253ZM585 418C591 412 579.982 380.746 534 379C455 376 416 459 417 506C418 553 436 570 461 572C486 574 507.695 548.394 525 532C563 496 577 529 586 521C595 513 580.04 481.789 554 483C511 485 482.025 540 466 540C452 540 443.912 526.775 447 503C457 426 502 408 541 408C560.021 408 579 424 585 418ZM186.019 298.08C192.019 292.08 181 260.825 135.019 259.08C56.0189 256.08 17.0189 339.08 18.0189 386.08C19.0189 433.08 20.9119 396.774 23.9999 373C33.9999 296 103.019 289.08 142.019 289.08C161.04 289.08 180.019 304.08 186.019 298.08Z" fill="#2F2F2F"/>
</g>
</svg>
